<?xml version="1.0" encoding="utf-8"?>
<svg xmlns="http://www.w3.org/2000/svg" xmlns:xlink="http://www.w3.org/1999/xlink" width="300" height="300" viewBox="0 0 1200 1200">
<defs>
  <clipPath id="clip9800">
    <rect x="0" y="0" width="1200" height="1200"/>
  </clipPath>
</defs>
<path clip-path="url(#clip9800)" d="
M0 1200 L1200 1200 L1200 0 L0 0  Z
  " fill="#ffffff" fill-rule="evenodd" fill-opacity="1"/>
<defs>
  <clipPath id="clip9801">
    <rect x="240" y="120" width="841" height="841"/>
  </clipPath>
</defs>
<path clip-path="url(#clip9800)" d="
M182.008 1062.71 L1152.76 1062.71 L1152.76 47.2441 L182.008 47.2441  Z
  " fill="#ffffff" fill-rule="evenodd" fill-opacity="1"/>
<defs>
  <clipPath id="clip9802">
    <rect x="182" y="47" width="972" height="1016"/>
  </clipPath>
</defs>
<polyline clip-path="url(#clip9802)" style="stroke:#000000; stroke-width:4; stroke-opacity:1; fill:none" points="
  588.324,539.919 487.319,772.043
  "/>
<polyline clip-path="url(#clip9802)" style="stroke:#000000; stroke-width:4; stroke-opacity:1; fill:none" points="
  809.95,757.052 588.324,539.919
  "/>
<polyline clip-path="url(#clip9802)" style="stroke:#000000; stroke-width:4; stroke-opacity:1; fill:none" points="
  809.95,757.052 487.319,772.043
  "/>
<polyline clip-path="url(#clip9802)" style="stroke:#000000; stroke-width:4; stroke-opacity:1; fill:none" points="
  809.95,757.052 1021.28,531.342
  "/>
<polyline clip-path="url(#clip9802)" style="stroke:#000000; stroke-width:4; stroke-opacity:1; fill:none" points="
  1021.28,531.342 810.478,328.199
  "/>
<polyline clip-path="url(#clip9802)" style="stroke:#00ffff; stroke-width:4; stroke-opacity:1; fill:none" points="
  810.478,328.199 588.324,539.919
  "/>
<polyline clip-path="url(#clip9802)" style="stroke:#d3d3d3; stroke-width:4; stroke-opacity:1; fill:none" stroke-dasharray="2, 4" points="
  289.076,403.12 588.324,539.919
  "/>
<polyline clip-path="url(#clip9802)" style="stroke:#d3d3d3; stroke-width:4; stroke-opacity:1; fill:none" stroke-dasharray="2, 4" points="
  823.209,1033.97 809.95,757.052
  "/>
<polyline clip-path="url(#clip9802)" style="stroke:#d3d3d3; stroke-width:4; stroke-opacity:1; fill:none" stroke-dasharray="2, 4" points="
  209.482,915.993 487.319,772.043
  "/>
<polyline clip-path="url(#clip9802)" style="stroke:#d3d3d3; stroke-width:4; stroke-opacity:1; fill:none" stroke-dasharray="2, 4" points="
  1125.28,870.411 809.95,757.052
  "/>
<polyline clip-path="url(#clip9802)" style="stroke:#d3d3d3; stroke-width:4; stroke-opacity:1; fill:none" stroke-dasharray="2, 4" points="
  889.623,75.9836 810.478,328.199
  "/>
<circle clip-path="url(#clip9802)" style="fill:#00cd00; stroke:none; fill-opacity:1" cx="588.324" cy="539.919" r="36"/>
<circle clip-path="url(#clip9802)" style="fill:#a9a9a9; stroke:none; fill-opacity:1" cx="809.95" cy="757.052" r="36"/>
<circle clip-path="url(#clip9802)" style="fill:#a9a9a9; stroke:none; fill-opacity:1" cx="487.319" cy="772.043" r="36"/>
<circle clip-path="url(#clip9802)" style="fill:#00cd00; stroke:none; fill-opacity:1" cx="1021.28" cy="531.342" r="36"/>
<circle clip-path="url(#clip9802)" style="fill:#00cd00; stroke:none; fill-opacity:1" cx="810.478" cy="328.199" r="36"/>
<circle clip-path="url(#clip9802)" style="fill:#ffa500; stroke:none; fill-opacity:1" cx="289.076" cy="403.12" r="50"/>
<circle clip-path="url(#clip9802)" style="fill:#00ffff; stroke:none; fill-opacity:1" cx="823.209" cy="1033.97" r="53"/>
<circle clip-path="url(#clip9802)" style="fill:#00ffff; stroke:none; fill-opacity:1" cx="209.482" cy="915.993" r="90"/>
<circle clip-path="url(#clip9802)" style="fill:#00ffff; stroke:none; fill-opacity:1" cx="1125.28" cy="870.411" r="64"/>
<circle clip-path="url(#clip9802)" style="fill:#00ffff; stroke:none; fill-opacity:1" cx="889.623" cy="75.9836" r="77"/>
</svg>
